<?xml version="1.0" encoding="utf-8"?><!-- Generated by IcoMoon.io --><!DOCTYPE svg PUBLIC "-//W3C//DTD SVG 1.1//EN" "http://www.w3.org/Graphics/SVG/1.1/DTD/svg11.dtd"><svg version="1.1" xmlns="http://www.w3.org/2000/svg" xmlns:xlink="http://www.w3.org/1999/xlink" width="48" height="48" viewBox="0 0 48 48" data-tags="mine,bomb,virus"><g fill="#444" transform="scale(0.046875 0.046875)"><path d="M501.334 21.334c-29.44 0-53.334 23.892-53.334 53.332v78.294c-29.654 4.266-58.24 12.16-85.334 22.826l-39.040-67.84c-14.934-25.386-47.36-34.134-72.96-19.414s-34.346 47.36-19.626 72.746l39.254 68.054c-23.040 18.346-43.946 39.254-62.294 62.294l-68.054-39.254c-25.386-14.72-58.026-5.974-72.746 19.626s-5.974 58.026 19.414 72.96l67.84 39.254c-10.666 26.88-18.56 55.466-22.826 85.12l-78.294 0.002c-29.44 0-53.334 23.892-53.334 53.332s23.894 53.334 53.334 53.334h78.294c4.266 29.674 12.16 58.24 22.826 85.12l-67.84 39.254c-25.386 14.934-34.134 47.36-19.414 72.96s47.36 34.326 72.746 19.626l68.054-39.254c18.346 23.040 39.254 43.968 62.294 62.294l-39.254 68.032c-14.72 25.386-5.974 58.048 19.626 72.746 25.6 14.72 58.026 5.974 72.96-19.414l39.040-67.818c27.094 10.666 55.68 18.56 85.334 22.826v78.294c0 29.44 23.894 53.334 53.334 53.334s53.334-23.894 53.334-53.334v-78.294c29.674-4.266 58.24-12.16 85.334-22.826l39.040 67.84c14.912 25.386 47.36 34.154 72.96 19.414 25.6-14.698 34.326-47.36 19.626-72.746l-39.254-68.032c23.040-18.326 43.968-39.254 62.294-62.294l68.032 39.254c25.386 14.698 58.048 5.974 72.746-19.626 14.72-25.6 5.974-58.026-19.414-72.96l-67.84-39.254c10.666-26.88 18.56-55.466 22.826-85.12h78.294c29.44 0 53.334-23.894 53.334-53.334s-23.872-53.354-53.312-53.354h-78.294c-4.266-29.654-12.16-58.24-22.826-85.12l67.84-39.254c25.386-14.934 34.154-47.36 19.414-72.96-14.698-25.6-47.36-34.346-72.746-19.626l-68.032 39.254c-18.326-23.040-39.254-43.946-62.294-62.294l39.254-68.054c14.698-25.386 5.974-58.026-19.626-72.746s-58.048-5.974-72.96 19.414l-39.064 67.838c-27.094-10.666-55.658-18.56-85.334-22.826l0-78.294c0-29.44-23.892-53.332-53.332-53.332zM362.666 640c0-58.88 47.786-106.666 106.666-106.666s106.666 47.786 106.666 106.666-47.786 106.666-106.666 106.666-106.666-47.786-106.666-106.666zM576 437.334c0-41.174 33.494-74.666 74.666-74.666s74.666 33.494 74.666 74.666c0 41.174-33.494 74.666-74.666 74.666s-74.666-33.494-74.666-74.666zM405.334 330.666c0-29.44 23.894-53.334 53.334-53.334s53.334 23.894 53.334 53.334-23.896 53.334-53.336 53.334-53.332-23.894-53.332-53.334z" /></g></svg>